<svg width="16" height="16" viewBox="0 0 16 16" fill="none" xmlns="http://www.w3.org/2000/svg">
  <path fill-rule="evenodd" clip-rule="evenodd" d="M1.5 2.75C1.5 2.61193 1.61193 2.5 1.75 2.5H14.25C14.3881 2.5 14.5 2.61193 14.5 2.75V11.25C14.5 11.3881 14.3881 11.5 14.25 11.5H7.75C7.55109 11.5 7.36032 11.579 7.21967 11.7197L4.5 14.4393V12.25C4.5 11.8358 4.16421 11.5 3.75 11.5H1.75C1.61193 11.5 1.5 11.3881 1.5 11.25V2.75ZM1.75 1C0.783502 1 0 1.7835 0 2.75V11.25C0 12.2165 0.783502 13 1.75 13H3V14.543C3 15.4265 4.03857 15.8685 4.68198 15.2251L7.06066 12.8464L8.06066 13H14.25C15.2165 13 16 12.2165 16 11.25V2.75C16 1.7835 15.2165 1 14.25 1H1.75Z" fill="#238636"/>
</svg>
